<svg height="512" viewBox="0 0 60 60" width="512" xmlns="http://www.w3.org/2000/svg"><g id="005---Happy-Thoughts" fill="none"><g id="Icons" transform="translate(1 1)"><g fill="#e8edfc"><circle id="Oval" cx="2" cy="56" r="2"/><circle id="Oval" cx="9.5" cy="51.5" r="2.5"/><circle id="Oval" cx="16" cy="44" r="3"/><path id="Shape" d="m52.86 29.13v.41c.0772331.4832498.1239921.9708793.14 1.46-.0018487 5.2462922-3.1569477 9.9772987-7.9996145 11.9952588-4.8426669 2.01796-10.4236691.9273243-14.1503855-2.7652588-2.6199945 1.0933939-5.5812468 1.0216301-8.1452015-.197393-2.5639548-1.2190232-4.4889205-3.4703943-5.2947985-6.192607-2.7859486 1.5659979-6.1934101 1.537106-8.95240383-.0759075-2.75899377-1.6130135-4.45564277-4.5681802-4.45759617-7.7640925-.00271215-.4996131.04080666-.9984055.13-1.49.34768125-2.1128165 1.44460217-4.0297657 3.09-5.4-.15009657-.6932002-.22386918-1.4007465-.22-2.11 0-.24 0-.49 0-.72.00908699-.2619889.03918358-.5228261.09-.78.74284436-4.8963548 4.9576292-8.51145782 9.91-8.5.4752126.00595295.9495399.04269661 1.42.11 2.0539529-4.02240968 6.048445-6.6905127 10.550796-7.04735664s8.8672648 1.64871558 11.529204 5.29735664c2.4558224-.7048494 5.0954876-.33268835 7.2607041 1.023672 2.1652166 1.35636035 3.6519005 3.56907522 4.0892959 6.086328 3.1340172 1.0540088 5.4377116 3.7416522 6 7 .0966621.5043428.1468723 1.0164871.15 1.53.0067494 3.4253729-1.9315197 6.5576157-5 8.08z"/></g><path id="Shape" d="m52.86 29.13v.41c.0772331.4832498.1239921.9708793.14 1.46 0 7.1797017-5.8202983 13-13 13-.4980314.0002176-.9956157-.0298378-1.49-.09 6.5501491-.7660099 11.4889823-6.3152124 11.49-12.91-.0027564-.4882795-.0361554-.9759046-.1-1.46 0-.14 0-.27 0-.41l.09-.05c3.0723678-1.5195725 5.0148688-4.6523885 5.01-8.08.0022554-.5062223-.041255-1.0116122-.13-1.51-.5622884-3.2583478-2.8659828-5.9459912-6-7-.6484008-3.75629129-3.5928294-6.69671391-7.35-7.34 4.8812629-.81503648 9.5047906 2.46387107 10.35 7.34 3.1340172 1.0540088 5.4377116 3.7416522 6 7 .088745.4983878.1322554 1.0037777.13 1.51.0067494 3.4253729-1.9315197 6.5576157-5 8.08z" fill="#cad9fc"/></g><g id="Icons_copy" fill="#fff" transform="translate(0 1)"><path id="Shape" d="m14 44c0 1.6568542 1.3431458 3 3 3 .528668-.0025877 1.0468569-.1476805 1.5-.42-.9107595-.540413-1.4691179-1.5209773-1.4691179-2.58s.5583584-2.039587 1.4691179-2.58c-.4531431-.2723195-.971332-.4174123-1.5-.42-.7956495 0-1.5587112.3160705-2.1213203.8786797-.5626092.5626091-.8786797 1.3256708-.8786797 2.1213203z"/><path id="Shape" d="m12 49.51c-.4297172-.3314363-.9573157-.5108198-1.5-.51-1.38071187 0-2.5 1.1192881-2.5 2.5s1.11928813 2.5 2.5 2.5c.5426843.0008198 1.0702828-.1785637 1.5-.51-.6371426-.4671607-1.0135758-1.2099431-1.0135758-2s.3764332-1.5328393 1.0135758-2z"/><path id="Shape" d="m21.41 33.84c-.8260047.4690082-1.7200708.8063917-2.65 1 1.7549095 4.2454628 6.1766101 6.7491682 10.72 6.07-3.8335512-.5920299-6.9788994-3.3476199-8.07-7.07z"/><path id="Shape" d="m3 58c.57603615-.0032504 1.12269949-.2547156 1.5-.69-.65165633-.7517715-.65165633-1.8682285 0-2.62-.60542372-.6984067-1.6105638-.8909779-2.4312521-.4657951-.82068829.4251829-1.24312168 1.3573526-1.02178997 2.2547499.2213317.8973974 1.02876787 1.5262353 1.95304207 1.5210452z"/><path id="Shape" d="m15.49 34.86c-3.4488306-.5952993-6.23980049-3.1359719-7.15558449-6.5138638-.91578401-3.3778918.20971169-6.9803618 2.88558449-9.2361362-.261083-1.1826107-.2983927-2.4036553-.11-3.6.8377312-5.4144794 5.8764268-9.14668127 11.3-8.37 1.9798193-3.87497548 5.7670921-6.50241939 10.09-7-.497297-.07211807-.9979464-.11884533-1.5-.14-4.88421.00527668-9.3533216 2.74777389-11.57 7.1-5.4235732-.77668127-10.46226876 2.9555206-11.3 8.37-.18839269 1.1963447-.151083 2.4173893.11 3.6-3.08715168 2.6142804-4.05070313 6.9670945-2.35531252 10.6400522 1.69539061 3.6729576 5.63307772 5.7634223 9.62531252 5.1099478z"/></g><path id="Shape" d="m9 33.21-1.3 1.55c-2.33212434-1.9028942-3.68966755-4.7500659-3.7-7.76h2c.02198673 2.4142472 1.12243195 4.6921689 3 6.21z" fill="#fff"/><g fill="#428dff"><path id="Shape" d="m3 60c1.65685425 0 3-1.3431458 3-3s-1.34314575-3-3-3-3 1.3431458-3 3 1.34314575 3 3 3zm0-4c.55228475 0 1 .4477153 1 1s-.44771525 1-1 1-1-.4477153-1-1 .44771525-1 1-1z"/><path id="Shape" d="m10.5 49c-1.93299662 0-3.5 1.5670034-3.5 3.5s1.56700338 3.5 3.5 3.5c1.9329966 0 3.5-1.5670034 3.5-3.5s-1.5670034-3.5-3.5-3.5zm0 5c-.82842712 0-1.5-.6715729-1.5-1.5s.67157288-1.5 1.5-1.5c.8284271 0 1.5.6715729 1.5 1.5s-.6715729 1.5-1.5 1.5z"/><path id="Shape" d="m17 41c-2.209139 0-4 1.790861-4 4s1.790861 4 4 4 4-1.790861 4-4-1.790861-4-4-4zm0 6c-1.1045695 0-2-.8954305-2-2s.8954305-2 2-2 2 .8954305 2 2-.8954305 2-2 2z"/><path id="Shape" d="m27 20v-1c0-.5522847-.4477153-1-1-1s-1 .4477153-1 1v1c0 .5522847.4477153 1 1 1s1-.4477153 1-1z"/><path id="Shape" d="m41 20v-1c0-.5522847-.4477153-1-1-1s-1 .4477153-1 1v1c0 .5522847.4477153 1 1 1s1-.4477153 1-1z"/><path id="Shape" d="m38 24c0-.5522847-.4477153-1-1-1s-1 .4477153-1 1c0 1.6568542-1.3431458 3-3 3s-3-1.3431458-3-3c0-.5522847-.4477153-1-1-1s-1 .4477153-1 1c0 2.7614237 2.2385763 5 5 5s5-2.2385763 5-5z"/><path id="Shape" d="m5.89 31.89c-.55228475 0-1-.4477153-1-1s.44771525-1 1-1 1 .4477153 1 1-.44771525 1-1 1z"/><path id="Shape" d="m53.73 12.73c-1.0544132-4.52374169-5.0850017-7.72584341-9.73-7.73-.7094593.00234659-1.4166968.07943883-2.11.23-2.8944614-3.59818979-7.3771116-5.5375948-11.9814196-5.18372484s-8.7379518 2.95549123-11.0485804 6.95372484c-.2864835-.01449418-.5735165-.01449418-.86 0-6.0751322 0-11 4.9248678-11 11 .00228424.5794014.04908869 1.1577707.14 1.73-2.00248791 1.8879922-3.13834399 4.5178246-3.14 7.27 0 .5522847.44771525 1 1 1s1-.4477153 1-1c.00055684-2.3605668 1.0436095-4.6003851 2.85-6.12 1.4626463-1.2315387 3.3180167-1.8984788 5.23-1.88.5522847 0 1-.4477153 1-1s-.4477153-1-1-1c-1.7544816-.002964-3.4788648.4557219-5 1.33 0-.11 0-.22 0-.33-.01095421-2.5983332 1.1078328-5.0731676 3.0656714-6.7814778 1.9578385-1.70831011 4.5614425-2.48144421 7.1343286-2.1185222 1.3634123.1961351 2.661647.70994833 3.79 1.5.2832737.2468831.681037.3141279 1.0297238.1740824s.5894345-.4637399.6232441-.8379753c.0338096-.37423541-.1450263-.73583631-.4629679-.9361071-.9872302-.71104212-2.0902166-1.24561836-3.26-1.58 2.200812-3.38309588 5.9640486-5.42277015 10-5.42 3.8444527.0182265 7.4474206 1.87734302 9.69 5h.05c.765265 1.06356205 1.3497835 2.24611397 1.73 3.5.103607.342975.3823188.6046233.7311474.6863844.3488285.0817612.7147785-.0287862.96-.29s.3324596-.6334094.2288526-.9763844c-.3049326-.99357471-.720892-1.94961039-1.24-2.85.2819054-.03826251.565633-.06162831.85-.07 3.8921945.00172844 7.2183273 2.8044596 7.88 6.64.2206469 1.3437846.0897353 2.7218017-.38 4-.1162037.2585424-.1172255.5542539-.0028111.8135931.1144143.2593393.3335143.4579383.6028111.5464069.1121529.0407202.2306881.0610405.35.06.4184725.0013593.7935361-.2579931.94-.65.3864869-1.0615984.5926655-2.1803705.61-3.31 2.5551862 1.4940856 4.0765954 4.2769244 3.9551137 7.2343744-.1214816 2.95745-1.8659988 5.6061359-4.5351137 6.8856256-1.5586204.7330327-3.3122002.9434623-5 .6-.3572656-.0714531-.7255124.0531204-.9660254.3267949s-.3167526.6548724-.2 1c.1167526.3451277.4087598.601752.7660254.6732051 1.6615162.3418238 3.3828989.2523119 5-.26v.46c-.0052999 3.1825992-1.2746677 6.2327416-3.5288559 8.4794284s-5.3085449 3.5058804-8.4911441 3.5005716c-2.6770449.0057868-5.2775746-.8927702-7.38-2.55.7517965-.4488015 1.4496829-.982282 2.08-1.59.1893127-.1877666.2957983-.4433625.2957983-.71s-.1064856-.5222334-.2957983-.71c-.3900375-.3877236-1.0199625-.3877236-1.41 0-.7833985.7638898-1.6980048 1.3804022-2.7 1.82 0 0 0 0-.05 0h-.09c-1.0890888.4744422-2.2621383.7260528-3.45.74-3.9852174.0007825-7.4964271-2.6194018-8.63-6.44-.2496215-.830259-.3743201-1.6930385-.37-2.56.0004015-.3747463.027134-.7490012.08-1.12.0828427-.5522847-.2977153-1.0671573-.85-1.15s-1.0671573.2977153-1.15.85c-.0621105.4706695-.0888521.9453326-.08 1.42-.0014514.7696852.0790015 1.5373401.24 2.29-1.0173946.4638595-2.1218584.7058871-3.24.71-1.8196363-.0224456-3.5795545-.6524964-5-1.79-.4109402-.3352063-1.01209141-.2913267-1.37.1-.18520367.2035065-.27836728.4743351-.25755257.7487109.02081471.2743757.15376824.5280506.36755257.7012891 2.8553609 2.3197344 6.7538418 2.884342 10.15 1.47 2.2375395 5.3728919 8.273157 8.0729212 13.77 6.16 4.1086332 3.6796406 9.9948368 4.6040577 15.0336183 2.3610012 5.0387816-2.2430566 8.2910295-7.2355333 8.3063817-12.7510012.0002944-.4376091-.023073-.8749141-.07-1.31 3.3543018-1.8894467 5.3260956-5.5366767 5.0700073-9.3780005-.2560882-3.8413238-2.6945781-7.1945349-6.2700073-8.6219995z"/></g></g></svg>